G04 MADE WITH FRITZING*
G04 WWW.FRITZING.ORG*
G04 DOUBLE SIDED*
G04 HOLES PLATED*
G04 CONTOUR ON CENTER OF CONTOUR VECTOR*
%ASAXBY*%
%FSLAX23Y23*%
%MOIN*%
%OFA0B0*%
%SFA1.0B1.0*%
%ADD10R,2.362200X2.362200X2.346200X2.346200*%
%ADD11C,0.008000*%
%ADD12C,0.010000*%
%ADD13R,0.001000X0.001000*%
%LNSILK0*%
G90*
G70*
G54D11*
X4Y2358D02*
X2358Y2358D01*
X2358Y4D01*
X4Y4D01*
X4Y2358D01*
D02*
G54D12*
X1631Y1986D02*
X1491Y1986D01*
G54D13*
X1535Y2063D02*
X1543Y2063D01*
X1566Y2063D02*
X1593Y2063D01*
X1517Y2062D02*
X1524Y2062D01*
X1534Y2062D02*
X1545Y2062D01*
X1564Y2062D02*
X1595Y2062D01*
X1516Y2061D02*
X1525Y2061D01*
X1534Y2061D02*
X1546Y2061D01*
X1563Y2061D02*
X1596Y2061D01*
X1515Y2060D02*
X1527Y2060D01*
X1533Y2060D02*
X1546Y2060D01*
X1563Y2060D02*
X1596Y2060D01*
X1514Y2059D02*
X1528Y2059D01*
X1533Y2059D02*
X1546Y2059D01*
X1563Y2059D02*
X1596Y2059D01*
X1513Y2058D02*
X1529Y2058D01*
X1532Y2058D02*
X1546Y2058D01*
X1563Y2058D02*
X1596Y2058D01*
X1513Y2057D02*
X1530Y2057D01*
X1532Y2057D02*
X1545Y2057D01*
X1564Y2057D02*
X1596Y2057D01*
X1513Y2056D02*
X1539Y2056D01*
X1576Y2056D02*
X1583Y2056D01*
X1590Y2056D02*
X1596Y2056D01*
X1513Y2055D02*
X1519Y2055D01*
X1523Y2055D02*
X1538Y2055D01*
X1577Y2055D02*
X1583Y2055D01*
X1590Y2055D02*
X1596Y2055D01*
X1513Y2054D02*
X1519Y2054D01*
X1524Y2054D02*
X1537Y2054D01*
X1577Y2054D02*
X1583Y2054D01*
X1590Y2054D02*
X1596Y2054D01*
X1513Y2053D02*
X1519Y2053D01*
X1525Y2053D02*
X1537Y2053D01*
X1577Y2053D02*
X1583Y2053D01*
X1590Y2053D02*
X1596Y2053D01*
X1513Y2052D02*
X1519Y2052D01*
X1526Y2052D02*
X1537Y2052D01*
X1577Y2052D02*
X1583Y2052D01*
X1590Y2052D02*
X1596Y2052D01*
X1513Y2051D02*
X1519Y2051D01*
X1528Y2051D02*
X1537Y2051D01*
X1577Y2051D02*
X1583Y2051D01*
X1590Y2051D02*
X1596Y2051D01*
X1513Y2050D02*
X1519Y2050D01*
X1529Y2050D02*
X1539Y2050D01*
X1577Y2050D02*
X1583Y2050D01*
X1590Y2050D02*
X1596Y2050D01*
X1513Y2049D02*
X1519Y2049D01*
X1529Y2049D02*
X1540Y2049D01*
X1577Y2049D02*
X1583Y2049D01*
X1590Y2049D02*
X1596Y2049D01*
X1513Y2048D02*
X1519Y2048D01*
X1528Y2048D02*
X1541Y2048D01*
X1577Y2048D02*
X1583Y2048D01*
X1590Y2048D02*
X1596Y2048D01*
X1513Y2047D02*
X1519Y2047D01*
X1528Y2047D02*
X1542Y2047D01*
X1577Y2047D02*
X1583Y2047D01*
X1590Y2047D02*
X1596Y2047D01*
X1513Y2046D02*
X1519Y2046D01*
X1528Y2046D02*
X1543Y2046D01*
X1577Y2046D02*
X1583Y2046D01*
X1590Y2046D02*
X1596Y2046D01*
X1513Y2045D02*
X1519Y2045D01*
X1527Y2045D02*
X1544Y2045D01*
X1577Y2045D02*
X1583Y2045D01*
X1590Y2045D02*
X1596Y2045D01*
X1513Y2044D02*
X1519Y2044D01*
X1527Y2044D02*
X1533Y2044D01*
X1536Y2044D02*
X1544Y2044D01*
X1577Y2044D02*
X1583Y2044D01*
X1590Y2044D02*
X1596Y2044D01*
X1513Y2043D02*
X1519Y2043D01*
X1527Y2043D02*
X1533Y2043D01*
X1537Y2043D02*
X1545Y2043D01*
X1577Y2043D02*
X1583Y2043D01*
X1590Y2043D02*
X1596Y2043D01*
X1513Y2042D02*
X1519Y2042D01*
X1526Y2042D02*
X1533Y2042D01*
X1538Y2042D02*
X1545Y2042D01*
X1577Y2042D02*
X1583Y2042D01*
X1590Y2042D02*
X1596Y2042D01*
X1513Y2041D02*
X1519Y2041D01*
X1527Y2041D02*
X1532Y2041D01*
X1539Y2041D02*
X1546Y2041D01*
X1577Y2041D02*
X1583Y2041D01*
X1591Y2041D02*
X1596Y2041D01*
X1513Y2040D02*
X1519Y2040D01*
X1527Y2040D02*
X1532Y2040D01*
X1539Y2040D02*
X1546Y2040D01*
X1577Y2040D02*
X1583Y2040D01*
X1591Y2040D02*
X1596Y2040D01*
X1513Y2039D02*
X1519Y2039D01*
X1528Y2039D02*
X1531Y2039D01*
X1540Y2039D02*
X1546Y2039D01*
X1577Y2039D02*
X1583Y2039D01*
X1592Y2039D02*
X1595Y2039D01*
X1513Y2038D02*
X1519Y2038D01*
X1540Y2038D02*
X1546Y2038D01*
X1577Y2038D02*
X1583Y2038D01*
X1513Y2037D02*
X1519Y2037D01*
X1540Y2037D02*
X1546Y2037D01*
X1577Y2037D02*
X1583Y2037D01*
X1513Y2036D02*
X1519Y2036D01*
X1540Y2036D02*
X1546Y2036D01*
X1577Y2036D02*
X1583Y2036D01*
X1513Y2035D02*
X1519Y2035D01*
X1540Y2035D02*
X1546Y2035D01*
X1577Y2035D02*
X1583Y2035D01*
X1513Y2034D02*
X1519Y2034D01*
X1540Y2034D02*
X1546Y2034D01*
X1577Y2034D02*
X1583Y2034D01*
X1513Y2033D02*
X1519Y2033D01*
X1540Y2033D02*
X1546Y2033D01*
X1577Y2033D02*
X1583Y2033D01*
X1513Y2032D02*
X1519Y2032D01*
X1540Y2032D02*
X1546Y2032D01*
X1577Y2032D02*
X1583Y2032D01*
X1513Y2031D02*
X1520Y2031D01*
X1540Y2031D02*
X1546Y2031D01*
X1577Y2031D02*
X1583Y2031D01*
X1513Y2030D02*
X1520Y2030D01*
X1540Y2030D02*
X1546Y2030D01*
X1577Y2030D02*
X1583Y2030D01*
X1514Y2029D02*
X1522Y2029D01*
X1540Y2029D02*
X1546Y2029D01*
X1577Y2029D02*
X1583Y2029D01*
X1514Y2028D02*
X1523Y2028D01*
X1540Y2028D02*
X1546Y2028D01*
X1577Y2028D02*
X1583Y2028D01*
X1515Y2027D02*
X1524Y2027D01*
X1540Y2027D02*
X1546Y2027D01*
X1577Y2027D02*
X1583Y2027D01*
X1516Y2026D02*
X1525Y2026D01*
X1540Y2026D02*
X1546Y2026D01*
X1577Y2026D02*
X1583Y2026D01*
X1517Y2025D02*
X1526Y2025D01*
X1540Y2025D02*
X1546Y2025D01*
X1577Y2025D02*
X1583Y2025D01*
X1518Y2024D02*
X1527Y2024D01*
X1540Y2024D02*
X1546Y2024D01*
X1577Y2024D02*
X1583Y2024D01*
X1519Y2023D02*
X1529Y2023D01*
X1540Y2023D02*
X1546Y2023D01*
X1577Y2023D02*
X1583Y2023D01*
X1520Y2022D02*
X1530Y2022D01*
X1540Y2022D02*
X1546Y2022D01*
X1577Y2022D02*
X1583Y2022D01*
X1521Y2021D02*
X1531Y2021D01*
X1540Y2021D02*
X1546Y2021D01*
X1577Y2021D02*
X1583Y2021D01*
X1522Y2020D02*
X1532Y2020D01*
X1540Y2020D02*
X1546Y2020D01*
X1577Y2020D02*
X1583Y2020D01*
X1524Y2019D02*
X1533Y2019D01*
X1540Y2019D02*
X1546Y2019D01*
X1577Y2019D02*
X1583Y2019D01*
X1525Y2018D02*
X1535Y2018D01*
X1540Y2018D02*
X1546Y2018D01*
X1577Y2018D02*
X1583Y2018D01*
X1526Y2017D02*
X1536Y2017D01*
X1540Y2017D02*
X1546Y2017D01*
X1577Y2017D02*
X1583Y2017D01*
X1527Y2016D02*
X1537Y2016D01*
X1539Y2016D02*
X1546Y2016D01*
X1576Y2016D02*
X1583Y2016D01*
X1528Y2015D02*
X1546Y2015D01*
X1564Y2015D02*
X1583Y2015D01*
X1529Y2014D02*
X1545Y2014D01*
X1563Y2014D02*
X1583Y2014D01*
X1531Y2013D02*
X1545Y2013D01*
X1563Y2013D02*
X1583Y2013D01*
X1532Y2012D02*
X1544Y2012D01*
X1563Y2012D02*
X1583Y2012D01*
X1533Y2011D02*
X1543Y2011D01*
X1563Y2011D02*
X1583Y2011D01*
X1534Y2010D02*
X1542Y2010D01*
X1564Y2010D02*
X1583Y2010D01*
X1537Y2009D02*
X1539Y2009D01*
X1566Y2009D02*
X1582Y2009D01*
X1478Y1884D02*
X1480Y1884D01*
X1476Y1883D02*
X1481Y1883D01*
X1644Y1883D02*
X1644Y1883D01*
X1473Y1882D02*
X1481Y1882D01*
X1643Y1882D02*
X1647Y1882D01*
X1473Y1881D02*
X1482Y1881D01*
X1643Y1881D02*
X1651Y1881D01*
X1473Y1880D02*
X1482Y1880D01*
X1643Y1880D02*
X1651Y1880D01*
X1473Y1879D02*
X1482Y1879D01*
X1642Y1879D02*
X1652Y1879D01*
X1473Y1878D02*
X1482Y1878D01*
X1642Y1878D02*
X1651Y1878D01*
X1473Y1877D02*
X1482Y1877D01*
X1642Y1877D02*
X1651Y1877D01*
X1473Y1876D02*
X1482Y1876D01*
X1642Y1876D02*
X1651Y1876D01*
X1473Y1875D02*
X1482Y1875D01*
X1642Y1875D02*
X1651Y1875D01*
X1473Y1874D02*
X1483Y1874D01*
X1642Y1874D02*
X1651Y1874D01*
X1474Y1873D02*
X1483Y1873D01*
X1642Y1873D02*
X1651Y1873D01*
X1474Y1872D02*
X1483Y1872D01*
X1641Y1872D02*
X1651Y1872D01*
X1474Y1871D02*
X1483Y1871D01*
X1641Y1871D02*
X1650Y1871D01*
X1474Y1870D02*
X1484Y1870D01*
X1641Y1870D02*
X1650Y1870D01*
X1475Y1869D02*
X1484Y1869D01*
X1640Y1869D02*
X1650Y1869D01*
X1475Y1868D02*
X1485Y1868D01*
X1640Y1868D02*
X1649Y1868D01*
X1475Y1867D02*
X1485Y1867D01*
X1639Y1867D02*
X1649Y1867D01*
X1476Y1866D02*
X1486Y1866D01*
X1639Y1866D02*
X1649Y1866D01*
X1476Y1865D02*
X1486Y1865D01*
X1638Y1865D02*
X1648Y1865D01*
X1477Y1864D02*
X1487Y1864D01*
X1638Y1864D02*
X1648Y1864D01*
X1477Y1863D02*
X1487Y1863D01*
X1637Y1863D02*
X1647Y1863D01*
X1478Y1862D02*
X1488Y1862D01*
X1636Y1862D02*
X1647Y1862D01*
X1478Y1861D02*
X1489Y1861D01*
X1636Y1861D02*
X1646Y1861D01*
X1479Y1860D02*
X1490Y1860D01*
X1635Y1860D02*
X1646Y1860D01*
X1479Y1859D02*
X1490Y1859D01*
X1634Y1859D02*
X1645Y1859D01*
X1480Y1858D02*
X1491Y1858D01*
X1633Y1858D02*
X1644Y1858D01*
X1481Y1857D02*
X1492Y1857D01*
X1632Y1857D02*
X1644Y1857D01*
X1481Y1856D02*
X1493Y1856D01*
X1631Y1856D02*
X1643Y1856D01*
X1482Y1855D02*
X1494Y1855D01*
X1630Y1855D02*
X1642Y1855D01*
X1483Y1854D02*
X1495Y1854D01*
X1629Y1854D02*
X1641Y1854D01*
X1484Y1853D02*
X1497Y1853D01*
X1628Y1853D02*
X1641Y1853D01*
X1485Y1852D02*
X1498Y1852D01*
X1627Y1852D02*
X1640Y1852D01*
X1485Y1851D02*
X1499Y1851D01*
X1625Y1851D02*
X1639Y1851D01*
X1486Y1850D02*
X1501Y1850D01*
X1624Y1850D02*
X1638Y1850D01*
X1487Y1849D02*
X1502Y1849D01*
X1622Y1849D02*
X1637Y1849D01*
X1488Y1848D02*
X1503Y1848D01*
X1621Y1848D02*
X1636Y1848D01*
X1489Y1847D02*
X1505Y1847D01*
X1619Y1847D02*
X1635Y1847D01*
X1491Y1846D02*
X1507Y1846D01*
X1618Y1846D02*
X1634Y1846D01*
X1492Y1845D02*
X1509Y1845D01*
X1616Y1845D02*
X1633Y1845D01*
X1493Y1844D02*
X1510Y1844D01*
X1614Y1844D02*
X1631Y1844D01*
X1494Y1843D02*
X1513Y1843D01*
X1612Y1843D02*
X1630Y1843D01*
X1496Y1842D02*
X1515Y1842D01*
X1610Y1842D02*
X1629Y1842D01*
X1497Y1841D02*
X1517Y1841D01*
X1607Y1841D02*
X1627Y1841D01*
X1498Y1840D02*
X1520Y1840D01*
X1605Y1840D02*
X1626Y1840D01*
X1500Y1839D02*
X1522Y1839D01*
X1602Y1839D02*
X1624Y1839D01*
X1502Y1838D02*
X1526Y1838D01*
X1599Y1838D02*
X1623Y1838D01*
X1503Y1837D02*
X1529Y1837D01*
X1595Y1837D02*
X1621Y1837D01*
X1505Y1836D02*
X1533Y1836D01*
X1591Y1836D02*
X1619Y1836D01*
X1507Y1835D02*
X1537Y1835D01*
X1587Y1835D02*
X1617Y1835D01*
X1509Y1834D02*
X1544Y1834D01*
X1581Y1834D02*
X1615Y1834D01*
X1512Y1833D02*
X1554Y1833D01*
X1570Y1833D02*
X1613Y1833D01*
X1514Y1832D02*
X1611Y1832D01*
X1516Y1831D02*
X1608Y1831D01*
X1519Y1830D02*
X1605Y1830D01*
X1522Y1829D02*
X1602Y1829D01*
X1525Y1828D02*
X1599Y1828D01*
X1529Y1827D02*
X1595Y1827D01*
X1533Y1826D02*
X1591Y1826D01*
X1538Y1825D02*
X1586Y1825D01*
X1544Y1824D02*
X1580Y1824D01*
X1556Y1823D02*
X1569Y1823D01*
D02*
G04 End of Silk0*
M02*