G04 MADE WITH FRITZING*
G04 WWW.FRITZING.ORG*
G04 DOUBLE SIDED*
G04 HOLES PLATED*
G04 CONTOUR ON CENTER OF CONTOUR VECTOR*
%ASAXBY*%
%FSLAX23Y23*%
%MOIN*%
%OFA0B0*%
%SFA1.0B1.0*%
%ADD10C,0.070000*%
%ADD11C,0.075000*%
%ADD12C,0.078000*%
%ADD13R,0.070000X0.069972*%
%ADD14R,0.075000X0.075000*%
%ADD15R,0.001000X0.001000*%
%LNCOPPER1*%
G90*
G70*
G54D10*
X1561Y1422D03*
X1461Y1422D03*
X1361Y1422D03*
X1261Y1422D03*
X1161Y1422D03*
X1061Y1422D03*
X961Y1422D03*
X861Y1422D03*
X761Y1422D03*
X661Y1422D03*
X561Y1422D03*
X461Y1422D03*
X361Y1422D03*
X261Y1422D03*
X161Y1422D03*
X1561Y822D03*
X1461Y822D03*
X1361Y822D03*
X1261Y822D03*
X1161Y822D03*
X1061Y822D03*
X961Y822D03*
X861Y822D03*
X761Y822D03*
X661Y822D03*
X561Y822D03*
X461Y822D03*
X361Y822D03*
X261Y822D03*
X161Y822D03*
X661Y1922D03*
X461Y1922D03*
X561Y1722D03*
G54D11*
X1061Y1722D03*
X1061Y1922D03*
X1561Y422D03*
X1461Y422D03*
X1361Y422D03*
X1861Y622D03*
X1461Y622D03*
X1761Y1922D03*
X2161Y1922D03*
G54D12*
X2161Y2122D03*
X2061Y2122D03*
X1761Y422D03*
X1861Y422D03*
G54D11*
X1961Y1722D03*
X1561Y1722D03*
X261Y372D03*
X661Y372D03*
G54D12*
X561Y622D03*
X461Y622D03*
G54D11*
X961Y422D03*
X961Y622D03*
X1476Y1922D03*
X1576Y1922D03*
X1676Y1922D03*
G54D12*
X661Y172D03*
X561Y172D03*
X461Y172D03*
G54D11*
X1061Y1522D03*
X1811Y1522D03*
G54D13*
X1561Y1422D03*
G54D14*
X1061Y1722D03*
X961Y422D03*
G54D15*
X455Y1957D02*
X465Y1957D01*
X655Y1957D02*
X665Y1957D01*
X451Y1956D02*
X469Y1956D01*
X651Y1956D02*
X669Y1956D01*
X448Y1955D02*
X472Y1955D01*
X648Y1955D02*
X672Y1955D01*
X446Y1954D02*
X474Y1954D01*
X646Y1954D02*
X674Y1954D01*
X444Y1953D02*
X476Y1953D01*
X644Y1953D02*
X676Y1953D01*
X442Y1952D02*
X478Y1952D01*
X642Y1952D02*
X678Y1952D01*
X440Y1951D02*
X480Y1951D01*
X640Y1951D02*
X680Y1951D01*
X439Y1950D02*
X481Y1950D01*
X639Y1950D02*
X681Y1950D01*
X438Y1949D02*
X482Y1949D01*
X638Y1949D02*
X682Y1949D01*
X437Y1948D02*
X483Y1948D01*
X637Y1948D02*
X683Y1948D01*
X436Y1947D02*
X485Y1947D01*
X635Y1947D02*
X685Y1947D01*
X435Y1946D02*
X485Y1946D01*
X635Y1946D02*
X685Y1946D01*
X434Y1945D02*
X486Y1945D01*
X634Y1945D02*
X686Y1945D01*
X433Y1944D02*
X487Y1944D01*
X633Y1944D02*
X687Y1944D01*
X432Y1943D02*
X488Y1943D01*
X632Y1943D02*
X688Y1943D01*
X432Y1942D02*
X488Y1942D01*
X632Y1942D02*
X688Y1942D01*
X431Y1941D02*
X489Y1941D01*
X631Y1941D02*
X689Y1941D01*
X430Y1940D02*
X490Y1940D01*
X630Y1940D02*
X690Y1940D01*
X430Y1939D02*
X490Y1939D01*
X630Y1939D02*
X690Y1939D01*
X429Y1938D02*
X491Y1938D01*
X629Y1938D02*
X691Y1938D01*
X429Y1937D02*
X455Y1937D01*
X465Y1937D02*
X491Y1937D01*
X629Y1937D02*
X655Y1937D01*
X665Y1937D02*
X691Y1937D01*
X428Y1936D02*
X453Y1936D01*
X467Y1936D02*
X492Y1936D01*
X628Y1936D02*
X653Y1936D01*
X667Y1936D02*
X692Y1936D01*
X428Y1935D02*
X451Y1935D01*
X469Y1935D02*
X492Y1935D01*
X628Y1935D02*
X651Y1935D01*
X669Y1935D02*
X692Y1935D01*
X428Y1934D02*
X450Y1934D01*
X470Y1934D02*
X492Y1934D01*
X628Y1934D02*
X650Y1934D01*
X670Y1934D02*
X692Y1934D01*
X427Y1933D02*
X449Y1933D01*
X471Y1933D02*
X493Y1933D01*
X627Y1933D02*
X649Y1933D01*
X671Y1933D02*
X693Y1933D01*
X427Y1932D02*
X448Y1932D01*
X472Y1932D02*
X493Y1932D01*
X627Y1932D02*
X648Y1932D01*
X672Y1932D02*
X693Y1932D01*
X427Y1931D02*
X447Y1931D01*
X473Y1931D02*
X493Y1931D01*
X627Y1931D02*
X647Y1931D01*
X673Y1931D02*
X693Y1931D01*
X426Y1930D02*
X446Y1930D01*
X474Y1930D02*
X494Y1930D01*
X626Y1930D02*
X646Y1930D01*
X674Y1930D02*
X694Y1930D01*
X426Y1929D02*
X446Y1929D01*
X474Y1929D02*
X494Y1929D01*
X626Y1929D02*
X646Y1929D01*
X674Y1929D02*
X694Y1929D01*
X426Y1928D02*
X445Y1928D01*
X475Y1928D02*
X494Y1928D01*
X626Y1928D02*
X645Y1928D01*
X675Y1928D02*
X694Y1928D01*
X426Y1927D02*
X445Y1927D01*
X475Y1927D02*
X494Y1927D01*
X626Y1927D02*
X645Y1927D01*
X675Y1927D02*
X694Y1927D01*
X426Y1926D02*
X445Y1926D01*
X475Y1926D02*
X494Y1926D01*
X626Y1926D02*
X645Y1926D01*
X675Y1926D02*
X694Y1926D01*
X426Y1925D02*
X445Y1925D01*
X475Y1925D02*
X494Y1925D01*
X626Y1925D02*
X645Y1925D01*
X675Y1925D02*
X694Y1925D01*
X426Y1924D02*
X445Y1924D01*
X475Y1924D02*
X494Y1924D01*
X626Y1924D02*
X645Y1924D01*
X675Y1924D02*
X694Y1924D01*
X426Y1923D02*
X445Y1923D01*
X475Y1923D02*
X494Y1923D01*
X626Y1923D02*
X645Y1923D01*
X675Y1923D02*
X694Y1923D01*
X426Y1922D02*
X445Y1922D01*
X475Y1922D02*
X494Y1922D01*
X626Y1922D02*
X645Y1922D01*
X675Y1922D02*
X694Y1922D01*
X426Y1921D02*
X445Y1921D01*
X475Y1921D02*
X494Y1921D01*
X626Y1921D02*
X645Y1921D01*
X675Y1921D02*
X694Y1921D01*
X426Y1920D02*
X445Y1920D01*
X475Y1920D02*
X494Y1920D01*
X626Y1920D02*
X645Y1920D01*
X675Y1920D02*
X694Y1920D01*
X426Y1919D02*
X445Y1919D01*
X475Y1919D02*
X494Y1919D01*
X626Y1919D02*
X645Y1919D01*
X675Y1919D02*
X694Y1919D01*
X426Y1918D02*
X445Y1918D01*
X475Y1918D02*
X494Y1918D01*
X626Y1918D02*
X645Y1918D01*
X675Y1918D02*
X694Y1918D01*
X426Y1917D02*
X445Y1917D01*
X475Y1917D02*
X494Y1917D01*
X626Y1917D02*
X645Y1917D01*
X675Y1917D02*
X694Y1917D01*
X426Y1916D02*
X446Y1916D01*
X474Y1916D02*
X494Y1916D01*
X626Y1916D02*
X646Y1916D01*
X674Y1916D02*
X694Y1916D01*
X426Y1915D02*
X446Y1915D01*
X474Y1915D02*
X494Y1915D01*
X626Y1915D02*
X646Y1915D01*
X674Y1915D02*
X694Y1915D01*
X427Y1914D02*
X447Y1914D01*
X473Y1914D02*
X493Y1914D01*
X627Y1914D02*
X647Y1914D01*
X673Y1914D02*
X693Y1914D01*
X427Y1913D02*
X448Y1913D01*
X472Y1913D02*
X493Y1913D01*
X627Y1913D02*
X648Y1913D01*
X672Y1913D02*
X693Y1913D01*
X427Y1912D02*
X449Y1912D01*
X471Y1912D02*
X493Y1912D01*
X627Y1912D02*
X649Y1912D01*
X671Y1912D02*
X693Y1912D01*
X428Y1911D02*
X450Y1911D01*
X470Y1911D02*
X492Y1911D01*
X628Y1911D02*
X650Y1911D01*
X670Y1911D02*
X692Y1911D01*
X428Y1910D02*
X451Y1910D01*
X469Y1910D02*
X492Y1910D01*
X628Y1910D02*
X651Y1910D01*
X669Y1910D02*
X692Y1910D01*
X428Y1909D02*
X453Y1909D01*
X467Y1909D02*
X492Y1909D01*
X628Y1909D02*
X653Y1909D01*
X667Y1909D02*
X692Y1909D01*
X429Y1908D02*
X456Y1908D01*
X464Y1908D02*
X491Y1908D01*
X629Y1908D02*
X656Y1908D01*
X664Y1908D02*
X691Y1908D01*
X429Y1907D02*
X491Y1907D01*
X629Y1907D02*
X691Y1907D01*
X430Y1906D02*
X490Y1906D01*
X630Y1906D02*
X690Y1906D01*
X430Y1905D02*
X490Y1905D01*
X630Y1905D02*
X690Y1905D01*
X431Y1904D02*
X489Y1904D01*
X631Y1904D02*
X689Y1904D01*
X432Y1903D02*
X488Y1903D01*
X632Y1903D02*
X688Y1903D01*
X432Y1902D02*
X488Y1902D01*
X632Y1902D02*
X688Y1902D01*
X433Y1901D02*
X487Y1901D01*
X633Y1901D02*
X687Y1901D01*
X434Y1900D02*
X486Y1900D01*
X634Y1900D02*
X686Y1900D01*
X435Y1899D02*
X485Y1899D01*
X635Y1899D02*
X685Y1899D01*
X436Y1898D02*
X484Y1898D01*
X636Y1898D02*
X684Y1898D01*
X437Y1897D02*
X483Y1897D01*
X637Y1897D02*
X683Y1897D01*
X438Y1896D02*
X482Y1896D01*
X638Y1896D02*
X682Y1896D01*
X439Y1895D02*
X481Y1895D01*
X639Y1895D02*
X681Y1895D01*
X440Y1894D02*
X480Y1894D01*
X640Y1894D02*
X680Y1894D01*
X442Y1893D02*
X478Y1893D01*
X642Y1893D02*
X678Y1893D01*
X444Y1892D02*
X476Y1892D01*
X644Y1892D02*
X676Y1892D01*
X446Y1891D02*
X474Y1891D01*
X646Y1891D02*
X674Y1891D01*
X448Y1890D02*
X472Y1890D01*
X648Y1890D02*
X672Y1890D01*
X451Y1889D02*
X469Y1889D01*
X651Y1889D02*
X669Y1889D01*
X456Y1888D02*
X464Y1888D01*
X656Y1888D02*
X664Y1888D01*
X555Y1757D02*
X565Y1757D01*
X551Y1756D02*
X569Y1756D01*
X548Y1755D02*
X572Y1755D01*
X546Y1754D02*
X574Y1754D01*
X544Y1753D02*
X576Y1753D01*
X542Y1752D02*
X578Y1752D01*
X540Y1751D02*
X580Y1751D01*
X539Y1750D02*
X581Y1750D01*
X538Y1749D02*
X582Y1749D01*
X537Y1748D02*
X584Y1748D01*
X535Y1747D02*
X585Y1747D01*
X535Y1746D02*
X585Y1746D01*
X534Y1745D02*
X586Y1745D01*
X533Y1744D02*
X587Y1744D01*
X532Y1743D02*
X588Y1743D01*
X532Y1742D02*
X588Y1742D01*
X531Y1741D02*
X589Y1741D01*
X530Y1740D02*
X590Y1740D01*
X530Y1739D02*
X590Y1739D01*
X529Y1738D02*
X591Y1738D01*
X529Y1737D02*
X555Y1737D01*
X565Y1737D02*
X591Y1737D01*
X528Y1736D02*
X553Y1736D01*
X567Y1736D02*
X592Y1736D01*
X528Y1735D02*
X551Y1735D01*
X569Y1735D02*
X592Y1735D01*
X528Y1734D02*
X550Y1734D01*
X570Y1734D02*
X592Y1734D01*
X527Y1733D02*
X549Y1733D01*
X571Y1733D02*
X593Y1733D01*
X527Y1732D02*
X548Y1732D01*
X572Y1732D02*
X593Y1732D01*
X527Y1731D02*
X547Y1731D01*
X573Y1731D02*
X593Y1731D01*
X526Y1730D02*
X546Y1730D01*
X574Y1730D02*
X594Y1730D01*
X526Y1729D02*
X546Y1729D01*
X574Y1729D02*
X594Y1729D01*
X526Y1728D02*
X545Y1728D01*
X575Y1728D02*
X594Y1728D01*
X526Y1727D02*
X545Y1727D01*
X575Y1727D02*
X594Y1727D01*
X526Y1726D02*
X545Y1726D01*
X575Y1726D02*
X594Y1726D01*
X526Y1725D02*
X545Y1725D01*
X575Y1725D02*
X594Y1725D01*
X526Y1724D02*
X545Y1724D01*
X575Y1724D02*
X594Y1724D01*
X526Y1723D02*
X545Y1723D01*
X575Y1723D02*
X594Y1723D01*
X526Y1722D02*
X545Y1722D01*
X575Y1722D02*
X594Y1722D01*
X526Y1721D02*
X545Y1721D01*
X575Y1721D02*
X594Y1721D01*
X526Y1720D02*
X545Y1720D01*
X575Y1720D02*
X594Y1720D01*
X526Y1719D02*
X545Y1719D01*
X575Y1719D02*
X594Y1719D01*
X526Y1718D02*
X545Y1718D01*
X575Y1718D02*
X594Y1718D01*
X526Y1717D02*
X545Y1717D01*
X575Y1717D02*
X594Y1717D01*
X526Y1716D02*
X546Y1716D01*
X574Y1716D02*
X594Y1716D01*
X526Y1715D02*
X546Y1715D01*
X574Y1715D02*
X594Y1715D01*
X527Y1714D02*
X547Y1714D01*
X573Y1714D02*
X593Y1714D01*
X527Y1713D02*
X548Y1713D01*
X572Y1713D02*
X593Y1713D01*
X527Y1712D02*
X549Y1712D01*
X571Y1712D02*
X593Y1712D01*
X528Y1711D02*
X550Y1711D01*
X570Y1711D02*
X592Y1711D01*
X528Y1710D02*
X551Y1710D01*
X569Y1710D02*
X592Y1710D01*
X528Y1709D02*
X553Y1709D01*
X567Y1709D02*
X592Y1709D01*
X529Y1708D02*
X556Y1708D01*
X564Y1708D02*
X591Y1708D01*
X529Y1707D02*
X591Y1707D01*
X530Y1706D02*
X590Y1706D01*
X530Y1705D02*
X590Y1705D01*
X531Y1704D02*
X589Y1704D01*
X532Y1703D02*
X588Y1703D01*
X532Y1702D02*
X588Y1702D01*
X533Y1701D02*
X587Y1701D01*
X534Y1700D02*
X586Y1700D01*
X535Y1699D02*
X585Y1699D01*
X536Y1698D02*
X584Y1698D01*
X537Y1697D02*
X583Y1697D01*
X538Y1696D02*
X582Y1696D01*
X539Y1695D02*
X581Y1695D01*
X541Y1694D02*
X580Y1694D01*
X542Y1693D02*
X578Y1693D01*
X544Y1692D02*
X576Y1692D01*
X546Y1691D02*
X574Y1691D01*
X548Y1690D02*
X572Y1690D01*
X551Y1689D02*
X569Y1689D01*
X556Y1688D02*
X564Y1688D01*
D02*
G04 End of Copper1*
M02*