; NON-PLATED HOLES START AT T1
; THROUGH (PLATED) HOLES START AT T100
M48
INCH
T1C0.086614
T100C0.038000
T101C0.036000
T102C0.030000
T103C0.035000
%
T1
X022605Y001222
X001105Y022722
X001105Y001222
X022605Y022722
T100
X005605Y001722
X017605Y004222
X021605Y021222
X006605Y001722
X018605Y004222
X020605Y021222
X004605Y006222
X004605Y001722
X005605Y006222
T101
X006605Y008222
X001605Y014222
X005605Y008222
X015605Y014222
X002605Y008222
X009605Y014222
X012605Y014222
X014605Y008222
X006605Y014222
X013605Y008222
X005605Y014222
X008605Y008222
X011605Y008222
X007605Y008222
X010605Y008222
X002605Y014222
X004605Y008222
X003605Y008222
X014605Y014222
X001605Y008222
X013605Y014222
X008605Y014222
X011605Y014222
X015605Y008222
X007605Y014222
X010605Y014222
X009605Y008222
X012605Y008222
X004605Y014222
X003605Y014222
T102
X005605Y017222
X006605Y019222
X004605Y019222
T103
X010605Y019222
X014755Y019222
X015605Y017222
X014605Y006222
X015605Y004222
X016605Y019222
X009605Y004222
X015605Y019222
X015755Y004222
X010605Y015222
X016755Y019222
X013755Y004222
X015755Y019222
X006605Y003722
X018105Y015222
X009605Y006222
X002605Y003722
X021605Y019222
X017605Y019222
X010605Y017222
X014605Y004222
X013605Y004222
X014605Y019222
X019605Y017222
X018605Y006222
X014755Y004222
T00
M30
