G04 MADE WITH FRITZING*
G04 WWW.FRITZING.ORG*
G04 DOUBLE SIDED*
G04 HOLES PLATED*
G04 CONTOUR ON CENTER OF CONTOUR VECTOR*
%ASAXBY*%
%FSLAX23Y23*%
%MOIN*%
%OFA0B0*%
%SFA1.0B1.0*%
%ADD10C,0.080000*%
%ADD11C,0.085000*%
%ADD12C,0.088000*%
%ADD13C,0.096614*%
%ADD14R,0.080000X0.079972*%
%ADD15R,0.085000X0.085000*%
%ADD16R,0.001000X0.001000*%
%LNMASK0*%
G90*
G70*
G54D10*
X1561Y1422D03*
X1461Y1422D03*
X1361Y1422D03*
X1261Y1422D03*
X1161Y1422D03*
X1061Y1422D03*
X961Y1422D03*
X861Y1422D03*
X761Y1422D03*
X661Y1422D03*
X561Y1422D03*
X461Y1422D03*
X361Y1422D03*
X261Y1422D03*
X161Y1422D03*
X1561Y822D03*
X1461Y822D03*
X1361Y822D03*
X1261Y822D03*
X1161Y822D03*
X1061Y822D03*
X961Y822D03*
X861Y822D03*
X761Y822D03*
X661Y822D03*
X561Y822D03*
X461Y822D03*
X361Y822D03*
X261Y822D03*
X161Y822D03*
G54D11*
X961Y422D03*
X961Y622D03*
X1061Y1722D03*
X1061Y1922D03*
X1661Y1922D03*
X1561Y1922D03*
X1461Y1922D03*
X1661Y1922D03*
X1561Y1922D03*
X1461Y1922D03*
X1376Y422D03*
X1476Y422D03*
X1576Y422D03*
X1376Y422D03*
X1476Y422D03*
X1576Y422D03*
X1861Y622D03*
X1461Y622D03*
X1961Y1722D03*
X1561Y1722D03*
X1761Y1922D03*
X2161Y1922D03*
G54D12*
X2161Y2122D03*
X2061Y2122D03*
X561Y622D03*
X461Y622D03*
X661Y172D03*
X561Y172D03*
X461Y172D03*
X1761Y422D03*
X1861Y422D03*
G54D11*
X261Y372D03*
X661Y372D03*
G54D13*
X111Y122D03*
X111Y2272D03*
X2261Y2272D03*
X2261Y122D03*
G54D11*
X1061Y1522D03*
X1811Y1522D03*
G54D14*
X1561Y1422D03*
G54D15*
X961Y422D03*
X1061Y1722D03*
G54D16*
X455Y1962D02*
X465Y1962D01*
X655Y1962D02*
X665Y1962D01*
X450Y1961D02*
X470Y1961D01*
X650Y1961D02*
X670Y1961D01*
X447Y1960D02*
X473Y1960D01*
X647Y1960D02*
X673Y1960D01*
X444Y1959D02*
X476Y1959D01*
X644Y1959D02*
X676Y1959D01*
X442Y1958D02*
X478Y1958D01*
X642Y1958D02*
X678Y1958D01*
X440Y1957D02*
X480Y1957D01*
X640Y1957D02*
X680Y1957D01*
X439Y1956D02*
X481Y1956D01*
X639Y1956D02*
X681Y1956D01*
X437Y1955D02*
X483Y1955D01*
X637Y1955D02*
X683Y1955D01*
X436Y1954D02*
X484Y1954D01*
X636Y1954D02*
X684Y1954D01*
X435Y1953D02*
X485Y1953D01*
X635Y1953D02*
X685Y1953D01*
X434Y1952D02*
X487Y1952D01*
X634Y1952D02*
X686Y1952D01*
X432Y1951D02*
X488Y1951D01*
X632Y1951D02*
X688Y1951D01*
X432Y1950D02*
X489Y1950D01*
X631Y1950D02*
X689Y1950D01*
X431Y1949D02*
X489Y1949D01*
X631Y1949D02*
X689Y1949D01*
X430Y1948D02*
X490Y1948D01*
X630Y1948D02*
X690Y1948D01*
X429Y1947D02*
X491Y1947D01*
X629Y1947D02*
X691Y1947D01*
X428Y1946D02*
X492Y1946D01*
X628Y1946D02*
X692Y1946D01*
X428Y1945D02*
X493Y1945D01*
X627Y1945D02*
X693Y1945D01*
X427Y1944D02*
X493Y1944D01*
X627Y1944D02*
X693Y1944D01*
X426Y1943D02*
X494Y1943D01*
X626Y1943D02*
X694Y1943D01*
X426Y1942D02*
X494Y1942D01*
X626Y1942D02*
X694Y1942D01*
X425Y1941D02*
X495Y1941D01*
X625Y1941D02*
X695Y1941D01*
X425Y1940D02*
X495Y1940D01*
X625Y1940D02*
X695Y1940D01*
X424Y1939D02*
X496Y1939D01*
X624Y1939D02*
X696Y1939D01*
X424Y1938D02*
X496Y1938D01*
X624Y1938D02*
X696Y1938D01*
X423Y1937D02*
X497Y1937D01*
X623Y1937D02*
X697Y1937D01*
X423Y1936D02*
X497Y1936D01*
X623Y1936D02*
X697Y1936D01*
X423Y1935D02*
X497Y1935D01*
X623Y1935D02*
X697Y1935D01*
X422Y1934D02*
X498Y1934D01*
X622Y1934D02*
X698Y1934D01*
X422Y1933D02*
X498Y1933D01*
X622Y1933D02*
X698Y1933D01*
X422Y1932D02*
X498Y1932D01*
X622Y1932D02*
X698Y1932D01*
X422Y1931D02*
X499Y1931D01*
X622Y1931D02*
X699Y1931D01*
X421Y1930D02*
X499Y1930D01*
X621Y1930D02*
X699Y1930D01*
X421Y1929D02*
X499Y1929D01*
X621Y1929D02*
X699Y1929D01*
X421Y1928D02*
X499Y1928D01*
X621Y1928D02*
X699Y1928D01*
X421Y1927D02*
X499Y1927D01*
X621Y1927D02*
X699Y1927D01*
X421Y1926D02*
X499Y1926D01*
X621Y1926D02*
X699Y1926D01*
X421Y1925D02*
X499Y1925D01*
X621Y1925D02*
X699Y1925D01*
X421Y1924D02*
X499Y1924D01*
X621Y1924D02*
X699Y1924D01*
X421Y1923D02*
X499Y1923D01*
X621Y1923D02*
X699Y1923D01*
X421Y1922D02*
X499Y1922D01*
X621Y1922D02*
X699Y1922D01*
X421Y1921D02*
X499Y1921D01*
X621Y1921D02*
X699Y1921D01*
X421Y1920D02*
X499Y1920D01*
X621Y1920D02*
X699Y1920D01*
X421Y1919D02*
X499Y1919D01*
X621Y1919D02*
X699Y1919D01*
X421Y1918D02*
X499Y1918D01*
X621Y1918D02*
X699Y1918D01*
X421Y1917D02*
X499Y1917D01*
X621Y1917D02*
X699Y1917D01*
X421Y1916D02*
X499Y1916D01*
X621Y1916D02*
X699Y1916D01*
X421Y1915D02*
X499Y1915D01*
X621Y1915D02*
X699Y1915D01*
X422Y1914D02*
X499Y1914D01*
X622Y1914D02*
X698Y1914D01*
X422Y1913D02*
X498Y1913D01*
X622Y1913D02*
X698Y1913D01*
X422Y1912D02*
X498Y1912D01*
X622Y1912D02*
X698Y1912D01*
X422Y1911D02*
X498Y1911D01*
X622Y1911D02*
X698Y1911D01*
X423Y1910D02*
X497Y1910D01*
X623Y1910D02*
X697Y1910D01*
X423Y1909D02*
X497Y1909D01*
X623Y1909D02*
X697Y1909D01*
X423Y1908D02*
X497Y1908D01*
X623Y1908D02*
X697Y1908D01*
X424Y1907D02*
X496Y1907D01*
X624Y1907D02*
X696Y1907D01*
X424Y1906D02*
X496Y1906D01*
X624Y1906D02*
X696Y1906D01*
X425Y1905D02*
X495Y1905D01*
X625Y1905D02*
X695Y1905D01*
X425Y1904D02*
X495Y1904D01*
X625Y1904D02*
X695Y1904D01*
X426Y1903D02*
X494Y1903D01*
X626Y1903D02*
X694Y1903D01*
X426Y1902D02*
X494Y1902D01*
X626Y1902D02*
X694Y1902D01*
X427Y1901D02*
X493Y1901D01*
X627Y1901D02*
X693Y1901D01*
X428Y1900D02*
X492Y1900D01*
X628Y1900D02*
X692Y1900D01*
X428Y1899D02*
X492Y1899D01*
X628Y1899D02*
X692Y1899D01*
X429Y1898D02*
X491Y1898D01*
X629Y1898D02*
X691Y1898D01*
X430Y1897D02*
X490Y1897D01*
X630Y1897D02*
X690Y1897D01*
X431Y1896D02*
X489Y1896D01*
X631Y1896D02*
X689Y1896D01*
X432Y1895D02*
X488Y1895D01*
X632Y1895D02*
X688Y1895D01*
X433Y1894D02*
X488Y1894D01*
X633Y1894D02*
X687Y1894D01*
X434Y1893D02*
X486Y1893D01*
X634Y1893D02*
X686Y1893D01*
X435Y1892D02*
X485Y1892D01*
X635Y1892D02*
X685Y1892D01*
X436Y1891D02*
X484Y1891D01*
X636Y1891D02*
X684Y1891D01*
X437Y1890D02*
X483Y1890D01*
X637Y1890D02*
X683Y1890D01*
X439Y1889D02*
X481Y1889D01*
X639Y1889D02*
X681Y1889D01*
X441Y1888D02*
X480Y1888D01*
X641Y1888D02*
X679Y1888D01*
X442Y1887D02*
X478Y1887D01*
X642Y1887D02*
X678Y1887D01*
X444Y1886D02*
X476Y1886D01*
X644Y1886D02*
X676Y1886D01*
X447Y1885D02*
X473Y1885D01*
X647Y1885D02*
X673Y1885D01*
X450Y1884D02*
X470Y1884D01*
X650Y1884D02*
X670Y1884D01*
X455Y1883D02*
X465Y1883D01*
X655Y1883D02*
X665Y1883D01*
X554Y1762D02*
X566Y1762D01*
X550Y1761D02*
X570Y1761D01*
X547Y1760D02*
X573Y1760D01*
X544Y1759D02*
X576Y1759D01*
X542Y1758D02*
X578Y1758D01*
X540Y1757D02*
X580Y1757D01*
X539Y1756D02*
X581Y1756D01*
X537Y1755D02*
X583Y1755D01*
X536Y1754D02*
X584Y1754D01*
X535Y1753D02*
X585Y1753D01*
X534Y1752D02*
X587Y1752D01*
X532Y1751D02*
X588Y1751D01*
X531Y1750D02*
X589Y1750D01*
X531Y1749D02*
X589Y1749D01*
X530Y1748D02*
X590Y1748D01*
X529Y1747D02*
X591Y1747D01*
X528Y1746D02*
X592Y1746D01*
X527Y1745D02*
X593Y1745D01*
X527Y1744D02*
X593Y1744D01*
X526Y1743D02*
X594Y1743D01*
X526Y1742D02*
X594Y1742D01*
X525Y1741D02*
X595Y1741D01*
X525Y1740D02*
X595Y1740D01*
X524Y1739D02*
X596Y1739D01*
X524Y1738D02*
X596Y1738D01*
X523Y1737D02*
X597Y1737D01*
X523Y1736D02*
X597Y1736D01*
X523Y1735D02*
X597Y1735D01*
X522Y1734D02*
X598Y1734D01*
X522Y1733D02*
X598Y1733D01*
X522Y1732D02*
X598Y1732D01*
X521Y1731D02*
X599Y1731D01*
X521Y1730D02*
X599Y1730D01*
X521Y1729D02*
X599Y1729D01*
X521Y1728D02*
X599Y1728D01*
X521Y1727D02*
X599Y1727D01*
X521Y1726D02*
X599Y1726D01*
X521Y1725D02*
X599Y1725D01*
X521Y1724D02*
X599Y1724D01*
X521Y1723D02*
X599Y1723D01*
X521Y1722D02*
X599Y1722D01*
X521Y1721D02*
X599Y1721D01*
X521Y1720D02*
X599Y1720D01*
X521Y1719D02*
X599Y1719D01*
X521Y1718D02*
X599Y1718D01*
X521Y1717D02*
X599Y1717D01*
X521Y1716D02*
X599Y1716D01*
X521Y1715D02*
X599Y1715D01*
X522Y1714D02*
X598Y1714D01*
X522Y1713D02*
X598Y1713D01*
X522Y1712D02*
X598Y1712D01*
X522Y1711D02*
X598Y1711D01*
X523Y1710D02*
X597Y1710D01*
X523Y1709D02*
X597Y1709D01*
X523Y1708D02*
X597Y1708D01*
X524Y1707D02*
X596Y1707D01*
X524Y1706D02*
X596Y1706D01*
X525Y1705D02*
X595Y1705D01*
X525Y1704D02*
X595Y1704D01*
X526Y1703D02*
X594Y1703D01*
X526Y1702D02*
X594Y1702D01*
X527Y1701D02*
X593Y1701D01*
X528Y1700D02*
X592Y1700D01*
X528Y1699D02*
X592Y1699D01*
X529Y1698D02*
X591Y1698D01*
X530Y1697D02*
X590Y1697D01*
X531Y1696D02*
X589Y1696D01*
X532Y1695D02*
X588Y1695D01*
X533Y1694D02*
X587Y1694D01*
X534Y1693D02*
X586Y1693D01*
X535Y1692D02*
X585Y1692D01*
X536Y1691D02*
X584Y1691D01*
X537Y1690D02*
X583Y1690D01*
X539Y1689D02*
X581Y1689D01*
X541Y1688D02*
X579Y1688D01*
X542Y1687D02*
X578Y1687D01*
X544Y1686D02*
X576Y1686D01*
X547Y1685D02*
X573Y1685D01*
X550Y1684D02*
X570Y1684D01*
X555Y1683D02*
X565Y1683D01*
D02*
G04 End of Mask0*
M02*